<svg id="Layer_1" data-name="Layer 1" xmlns="http://www.w3.org/2000/svg" viewBox="0 0 866.5 866"><defs><style>.cls-1{stroke:#3877b2;}.cls-1,.cls-2,.cls-3{stroke-miterlimit:10;}.cls-2,.cls-3{stroke:#ff77b2;stroke-width:50px;}.cls-3{fill:none;}</style></defs><title>MC_logo_bis</title><path class="cls-1" d="M1191,908l6-67c93.06-73.06,146-182.56,146-301,0-121.26-61.08-243.85-158-317l11-52c52.36,39.52,120.35,114.41,150,172.72a434.25,434.25,0,0,1,2,388.76C1319.63,789.8,1241.48,868.37,1191,908Z" transform="translate(-527 -107)"/><path d="M960,973A433.1,433.1,0,0,1,791.45,141,430.25,430.25,0,0,1,960,107c65.33,0,121.49,11,180,39l-10,48c-51.72-24.74-112.2-37-170-37-211.19,0-383,171.81-383,383S748.81,923,960,923c58.23,0,123-15.9,175-41l-5,55C1071.14,965.39,1025.82,973,960,973Z" transform="translate(-527 -107)"/><path class="cls-2" d="M1358.73,453.11" transform="translate(-527 -107)"/><path class="cls-2" d="M561.27,453.11" transform="translate(-527 -107)"/><path d="M961.31,539l-7.95-2.19c-2.08-.57-51.55-14.55-109.35-60.2a435.29,435.29,0,0,1-88.53-95c-31.23-45.31-55.3-97.73-71.55-155.8l48.14-13.48C787.9,411.78,925.71,473.76,959.22,486.11c116.4-48,201.06-148.95,227.78-272.11l49.16,10.3a433,433,0,0,1-94.91,190.14A435,435,0,0,1,969,536Z" transform="translate(-527 -107)"/><path class="cls-3" d="M813-276" transform="translate(-527 -107)"/></svg>